<svg width="26" height="26" viewBox="0 0 26 26" fill="none" xmlns="http://www.w3.org/2000/svg">
<path d="M19.045 4.33329H15.1667V2.16663H22.75V9.74996H20.5833V5.86079L16.4342 10.01C16.9238 10.7493 17.2244 11.5974 17.3096 12.4801C17.3949 13.3627 17.2621 14.2527 16.9231 15.072C16.584 15.8914 16.049 16.6149 15.365 17.1792C14.6809 17.7435 13.8689 18.1312 13 18.3083V20.5833H15.1667V22.75H13V24.9166H10.8333V22.75H8.66667V20.5833H10.8333V18.3083C9.60986 18.0586 8.51024 17.3938 7.72058 16.4264C6.93093 15.4591 6.49975 14.2487 6.5 13C6.5 11.5634 7.07068 10.1856 8.08651 9.1698C9.10233 8.15398 10.4801 7.58329 11.9167 7.58329C13 7.58329 14.04 7.90829 14.8958 8.48246L19.045 4.33329ZM11.9167 9.74996C11.0547 9.74996 10.2281 10.0924 9.61857 10.7019C9.00908 11.3114 8.66667 12.138 8.66667 13C8.66667 13.8619 9.00908 14.6886 9.61857 15.2981C10.2281 15.9076 11.0547 16.25 11.9167 16.25C12.7786 16.25 13.6053 15.9076 14.2148 15.2981C14.8243 14.6886 15.1667 13.8619 15.1667 13C15.1667 12.138 14.8243 11.3114 14.2148 10.7019C13.6053 10.0924 12.7786 9.74996 11.9167 9.74996Z" fill="#808691"/>
</svg>
