<svg width="20" height="20" viewBox="0 0 20 20" fill="none" xmlns="http://www.w3.org/2000/svg">
<path d="M15 8.95866C14.6583 8.95866 14.375 8.67533 14.375 8.33366V6.66699C14.375 4.04199 13.6333 2.29199 10 2.29199C6.36667 2.29199 5.625 4.04199 5.625 6.66699V8.33366C5.625 8.67533 5.34167 8.95866 5 8.95866C4.65833 8.95866 4.375 8.67533 4.375 8.33366V6.66699C4.375 4.25033 4.95833 1.04199 10 1.04199C15.0417 1.04199 15.625 4.25033 15.625 6.66699V8.33366C15.625 8.67533 15.3417 8.95866 15 8.95866Z" fill="#565A63"/>
<path d="M10.0001 16.0417C8.50841 16.0417 7.29175 14.825 7.29175 13.3333C7.29175 11.8417 8.50841 10.625 10.0001 10.625C11.4917 10.625 12.7084 11.8417 12.7084 13.3333C12.7084 14.825 11.4917 16.0417 10.0001 16.0417ZM10.0001 11.875C9.20008 11.875 8.54175 12.5333 8.54175 13.3333C8.54175 14.1333 9.20008 14.7917 10.0001 14.7917C10.8001 14.7917 11.4584 14.1333 11.4584 13.3333C11.4584 12.5333 10.8001 11.875 10.0001 11.875Z" fill="#565A63"/>
<path d="M14.1667 18.958H5.83342C2.15841 18.958 1.04175 17.8413 1.04175 14.1663V12.4997C1.04175 8.82467 2.15841 7.70801 5.83342 7.70801H14.1667C17.8417 7.70801 18.9584 8.82467 18.9584 12.4997V14.1663C18.9584 17.8413 17.8417 18.958 14.1667 18.958ZM5.83342 8.95801C2.85008 8.95801 2.29175 9.52467 2.29175 12.4997V14.1663C2.29175 17.1413 2.85008 17.708 5.83342 17.708H14.1667C17.1501 17.708 17.7084 17.1413 17.7084 14.1663V12.4997C17.7084 9.52467 17.1501 8.95801 14.1667 8.95801H5.83342Z" fill="#565A63"/>
</svg>
