<svg width="91" height="36" viewBox="0 0 91 36" fill="none" xmlns="http://www.w3.org/2000/svg">
<path d="M42.6002 26.4C41.3002 26.4 40.2002 26.1 39.2002 25.6C38.2002 25.1 37.5002 24.3 37.0002 23.4C36.5002 22.5 36.2002 21.4 36.2002 20.3C36.2002 19 36.5002 17.8 37.1002 16.9C37.6002 16 38.4002 15.2 39.3002 14.7C40.2002 14.2 41.1002 14 42.2002 14C43.0002 14 43.7002 14.2 44.4002 14.5C45.1002 14.8 45.7002 15.2 46.2002 15.8C46.7002 16.3 47.2002 17 47.5002 17.7C47.8002 18.4 48.0002 19.2 48.0002 20C48.0002 20.4 47.8002 20.6 47.6002 20.9C47.4002 21.2 47.0002 21.2 46.6002 21.2H37.9002L37.2002 19H45.6002L45.0002 19.3V18.7C44.9002 18.3 44.8002 17.9 44.5002 17.5C44.2002 17.1 43.9002 16.9 43.4002 16.7C43.0002 16.5 42.5002 16.4 42.1002 16.4C41.6002 16.4 41.2002 16.5 40.8002 16.6C40.4002 16.7 40.0002 16.9 39.8002 17.2C39.5002 17.5 39.3002 17.9 39.1002 18.4C38.9002 18.9 38.8002 19.5 38.8002 20.2C38.8002 21 39.0002 21.7 39.3002 22.3C39.7002 22.9 40.1002 23.3 40.6002 23.6C41.1002 23.9 41.7002 24 42.3002 24C42.8002 24 43.3002 23.9 43.6002 23.8C43.9002 23.7 44.2002 23.6 44.4002 23.5C44.6002 23.4 44.8002 23.3 44.9002 23.2C45.2002 23 45.4002 23 45.7002 23C46.0002 23 46.3002 23.1 46.6002 23.3C46.8002 23.5 46.9002 23.8 46.9002 24.1C46.9002 24.5 46.7002 24.9 46.3002 25.2C45.9002 25.5 45.3002 25.8 44.6002 26C44.1002 26.1 43.3002 26.4 42.6002 26.4Z" fill="#009899"/>
<path d="M60.1001 9.59961C60.5001 9.59961 60.8001 9.69961 61.1001 9.99961C61.4001 10.2996 61.5001 10.5996 61.5001 10.9996V24.8996C61.5001 25.2996 61.4001 25.5996 61.1001 25.7996C60.8001 26.0996 60.5001 26.1996 60.1001 26.1996C59.7001 26.1996 59.4001 26.0996 59.1001 25.7996C58.8001 25.4996 58.7001 25.1996 58.7001 24.8996V23.6996L59.2001 23.8996C59.2001 24.0996 59.1001 24.2996 58.9001 24.5996C58.7001 24.8996 58.4001 25.0996 58.0001 25.3996C57.6001 25.6996 57.2001 25.8996 56.7001 26.0996C56.2001 26.2996 55.7001 26.3996 55.1001 26.3996C54.0001 26.3996 53.1001 26.0996 52.2001 25.5996C51.3001 25.0996 50.7001 24.2996 50.2001 23.3996C49.7001 22.4996 49.4001 21.3996 49.4001 20.1996C49.4001 18.9996 49.7001 17.8996 50.2001 16.9996C50.7001 16.0996 51.4001 15.2996 52.2001 14.7996C53.1001 14.2996 54.0001 13.9996 55.0001 13.9996C55.6001 13.9996 56.2001 14.0996 56.8001 14.2996C57.3001 14.4996 57.8001 14.6996 58.3001 14.9996C58.7001 15.2996 59.0001 15.5996 59.2001 15.8996C59.4001 16.1996 59.5001 16.4996 59.5001 16.6996L58.7001 16.9996V10.9996C58.7001 10.5996 58.8001 10.2996 59.1001 10.0996C59.4001 9.69961 59.7001 9.59961 60.1001 9.59961ZM55.5001 23.8996C56.1001 23.8996 56.7001 23.6996 57.3001 23.3996C57.8001 23.0996 58.2001 22.5996 58.5001 22.0996C58.8001 21.4996 58.9001 20.8996 58.9001 20.1996C58.9001 19.4996 58.7001 18.7996 58.5001 18.1996C58.2001 17.5996 57.8001 17.1996 57.3001 16.7996C56.8001 16.4996 56.2001 16.2996 55.5001 16.2996C54.9001 16.2996 54.3001 16.4996 53.8001 16.7996C53.3001 17.0996 52.9001 17.5996 52.6001 18.1996C52.3001 18.7996 52.2001 19.3996 52.2001 20.1996C52.2001 20.8996 52.4001 21.4996 52.6001 22.0996C52.9001 22.6996 53.3001 23.0996 53.8001 23.3996C54.3001 23.7996 54.8001 23.8996 55.5001 23.8996Z" fill="#009899"/>
<path d="M65.6002 12.7C65.1002 12.7 64.7002 12.6 64.5002 12.4C64.3002 12.2 64.2002 11.9 64.2002 11.5V11.1C64.2002 10.7 64.3002 10.4 64.6002 10.2C64.8002 10.1 65.2002 10 65.7002 10C66.2002 10 66.6002 10.1 66.8002 10.3C67.0002 10.5 67.1002 10.8 67.1002 11.2V11.6C67.1002 12 67.0002 12.3 66.8002 12.5C66.6002 12.6 66.2002 12.7 65.6002 12.7ZM67.0002 24.8C67.0002 25.2 66.9002 25.5 66.6002 25.7C66.3002 26 66.0002 26.1 65.6002 26.1C65.2002 26.1 64.9002 26 64.6002 25.7C64.3002 25.4 64.2002 25.1 64.2002 24.8V15.6C64.2002 15.2 64.3002 14.9 64.6002 14.7C64.9002 14.4 65.2002 14.3 65.6002 14.3C66.0002 14.3 66.3002 14.4 66.6002 14.7C66.9002 15 67.0002 15.3 67.0002 15.6V24.8Z" fill="#009899"/>
<path d="M75.7001 14C76.8001 14 77.7001 14.3 78.6001 14.8C79.5001 15.3 80.1001 16.1 80.6001 17C81.1001 17.9 81.4001 19 81.4001 20.2C81.4001 21.4 81.1001 22.5 80.6001 23.4C80.1001 24.3 79.4001 25.1 78.6001 25.6C77.8001 26.1 76.8001 26.4 75.8001 26.4C75.2001 26.4 74.6001 26.3 74.1001 26.1C73.6001 25.9 73.1001 25.7 72.7001 25.4C72.3001 25.1 72.0001 24.8 71.8001 24.5C71.6001 24.2 71.5001 23.9 71.5001 23.7L72.2001 23.4V29.3C72.2001 29.7 72.1001 30 71.8001 30.2C71.5001 30.5 71.2001 30.6 70.8001 30.6C70.4001 30.6 70.1001 30.5 69.8001 30.2C69.5001 29.9 69.4001 29.6 69.4001 29.2V15.5C69.4001 15.1 69.5001 14.8 69.8001 14.6C70.1001 14.3 70.4001 14.2 70.8001 14.2C71.2001 14.2 71.5001 14.3 71.8001 14.6C72.1001 14.9 72.2001 15.2 72.2001 15.5V16.6L71.8001 16.4C71.8001 16.2 71.9001 16 72.1001 15.7C72.3001 15.4 72.6001 15.2 73.0001 14.9C73.4001 14.6 73.8001 14.4 74.3001 14.2C74.7001 14 75.1001 14 75.7001 14ZM75.4001 16.4C74.8001 16.4 74.2001 16.6 73.6001 16.9C73.1001 17.2 72.7001 17.7 72.4001 18.2C72.1001 18.8 72.0001 19.4 72.0001 20.1C72.0001 20.8 72.2001 21.4 72.4001 22C72.7001 22.6 73.1001 23 73.6001 23.4C74.1001 23.7 74.7001 23.9 75.4001 23.9C76.0001 23.9 76.6001 23.7 77.2001 23.4C77.7001 23.1 78.1001 22.6 78.4001 22C78.7001 21.4 78.8001 20.8 78.8001 20.1C78.8001 19.4 78.6001 18.7 78.4001 18.2C78.1001 17.7 77.8001 17.2 77.2001 16.9C76.6001 16.6 76.0001 16.4 75.4001 16.4Z" fill="#009899"/>
<path d="M83.8002 14.3996H89.2002C89.6002 14.3996 89.8002 14.4996 90.1002 14.7996C90.4002 15.0996 90.5002 15.2996 90.5002 15.6996C90.5002 16.0996 90.4002 16.2996 90.1002 16.4996C89.8002 16.6996 89.6002 16.8996 89.2002 16.8996H83.8002C83.4002 16.8996 83.2002 16.7996 82.9002 16.4996C82.6002 16.1996 82.5002 15.9996 82.5002 15.5996C82.5002 15.1996 82.6002 14.9996 82.9002 14.7996C83.1002 14.4996 83.4002 14.3996 83.8002 14.3996ZM86.2002 11.5996C86.6002 11.5996 86.9002 11.6996 87.2002 11.9996C87.5002 12.2996 87.6002 12.5996 87.6002 12.8996V22.8996C87.6002 23.0996 87.7002 23.2996 87.7002 23.3996C87.8002 23.5996 87.9002 23.5996 88.0002 23.6996C88.1002 23.7996 88.3002 23.7996 88.5002 23.7996C88.7002 23.7996 88.9002 23.6996 89.0002 23.6996C89.2002 23.5996 89.3002 23.5996 89.5002 23.5996C89.7002 23.5996 89.9002 23.6996 90.1002 23.8996C90.3002 24.0996 90.4002 24.3996 90.4002 24.6996C90.4002 25.0996 90.2002 25.3996 89.7002 25.7996C89.2002 26.0996 88.7002 26.1996 88.2002 26.1996C87.9002 26.1996 87.5002 26.1996 87.1002 26.0996C86.7002 25.9996 86.3002 25.8996 86.0002 25.6996C85.7002 25.4996 85.4002 25.1996 85.1002 24.7996C84.9002 24.3996 84.8002 23.7996 84.8002 23.0996V12.9996C84.8002 12.5996 84.9002 12.2996 85.2002 12.0996C85.4002 11.7996 85.8002 11.5996 86.2002 11.5996Z" fill="#009899"/>
<path d="M32.3999 13.7996C31.3999 10.8996 29.4999 9.69961 27.9999 9.19961C25.3999 8.29961 22.4999 8.99961 20.2999 9.79961C19.4999 7.09961 17.9999 3.99961 15.1999 2.19961C12.8999 0.799609 10.2999 0.599609 7.3999 1.59961C0.0998974 4.19961 -0.700102 12.1996 0.899898 18.9996C1.0999 19.5996 1.4999 20.1996 2.0999 20.4996C2.6999 20.7996 3.3999 20.8996 4.0999 20.6996C5.3999 20.1996 5.9999 18.9996 5.6999 17.7996C4.9999 14.8996 3.8999 7.89961 8.9999 6.19961C10.4999 5.69961 11.5999 5.69961 12.5999 6.29961C14.9999 7.69961 15.9999 12.1996 16.1999 13.5996L16.3999 14.7996C16.4999 15.2996 16.7999 15.7996 17.2999 16.0996C17.7999 16.2996 18.3999 16.2996 18.8999 15.9996L19.8999 15.3996C21.1999 14.5996 24.4999 13.0996 26.3999 13.7996C26.7999 13.9996 27.3999 14.2996 27.6999 15.3996C28.9999 19.0996 24.5999 22.7996 22.5999 24.2996C21.5999 24.9996 21.2999 26.3996 21.9999 27.4996C22.3999 28.0996 22.8999 28.3996 23.5999 28.5996C23.7999 28.6996 23.8999 28.6996 24.0999 28.6996C24.5999 28.6996 25.1999 28.4996 25.5999 28.1996C28.3999 25.9996 34.6999 20.5996 32.3999 13.7996Z" fill="#009899"/>
<path d="M16.6 25.4992H14.1V23.0992C14.1 21.7992 13 20.6992 11.7 20.6992C10.4 20.6992 9.3 21.7992 9.3 23.0992V25.4992H6.9C5.6 25.4992 4.5 26.5992 4.5 27.8992C4.5 29.1992 5.6 30.2992 6.9 30.2992H9.3V32.6992C9.3 33.9992 10.4 35.0992 11.7 35.0992C13 35.0992 14.1 33.9992 14.1 32.6992V30.2992H16.6C17.9 30.2992 19 29.1992 19 27.8992C19 26.5992 18 25.4992 16.6 25.4992Z" fill="#FF3E49"/>
</svg>
